<svg width="52" height="32" viewBox="0 0 52 32" fill="none" xmlns="http://www.w3.org/2000/svg">
<path d="M51.9658 24.8889C51.9658 28.8162 48.7821 32 44.8547 32C40.9273 32 37.7436 28.8162 37.7436 24.8889C37.7436 20.9615 40.9273 17.7778 44.8547 17.7778C48.7821 17.7778 51.9658 20.9615 51.9658 24.8889Z" fill="white"/>
<path d="M45.9487 11.4872C45.9487 17.8314 40.8057 22.9744 34.4615 22.9744C28.1173 22.9744 22.9744 17.8314 22.9744 11.4872C22.9744 5.14299 28.1173 0 34.4615 0C40.8057 0 45.9487 5.14299 45.9487 11.4872Z" fill="white"/>
<path d="M24.8889 13.9487C24.8889 18.1782 21.4602 21.6068 17.2308 21.6068C13.0013 21.6068 9.57265 18.1782 9.57265 13.9487C9.57265 9.71925 13.0013 6.29059 17.2308 6.29059C21.4602 6.29059 24.8889 9.71925 24.8889 13.9487Z" fill="white"/>
<path d="M18.0513 22.9744C18.0513 27.9591 14.0104 32 9.02564 32C4.04092 32 0 27.9591 0 22.9744C0 17.9896 4.04092 13.9487 9.02564 13.9487C14.0104 13.9487 18.0513 17.9896 18.0513 22.9744Z" fill="white"/>
<path d="M8.47863 16.4103L37.1966 15.3163L45.265 32H8.47863V16.4103Z" fill="white"/>
</svg>
