<svg width="130" height="28" viewBox="0 0 130 28" fill="none" xmlns="http://www.w3.org/2000/svg">
<path d="M32 19.4737C32 21.8921 30.0395 23.8526 27.6211 23.8526C25.2026 23.8526 23.2421 21.8921 23.2421 19.4737C23.2421 17.0552 25.2026 15.0947 27.6211 15.0947C30.0395 15.0947 32 17.0552 32 19.4737Z" fill="#2563EB"/>
<path d="M28.2947 11.2211C28.2947 15.1277 25.1277 18.2947 21.2211 18.2947C17.3144 18.2947 14.1474 15.1277 14.1474 11.2211C14.1474 7.31437 17.3144 4.14737 21.2211 4.14737C25.1277 4.14737 28.2947 7.31437 28.2947 11.2211Z" fill="#2563EB"/>
<path d="M15.3263 12.7368C15.3263 15.3413 13.215 17.4526 10.6105 17.4526C8.00608 17.4526 5.89474 15.3413 5.89474 12.7368C5.89474 10.1324 8.00608 8.02106 10.6105 8.02106C13.215 8.02106 15.3263 10.1324 15.3263 12.7368Z" fill="#2563EB"/>
<path d="M11.1158 18.2947C11.1158 21.3643 8.62743 23.8526 5.55789 23.8526C2.48835 23.8526 0 21.3643 0 18.2947C0 15.2252 2.48835 12.7368 5.55789 12.7368C8.62743 12.7368 11.1158 15.2252 11.1158 18.2947Z" fill="#2563EB"/>
<path d="M5.22105 14.2526L22.9053 13.5789L27.8737 23.8526H5.22105V14.2526Z" fill="#2563EB"/>
<path d="M44.0845 21L40.3388 7.90909H43.3622L45.5291 17.005H45.6378L48.0284 7.90909H50.6172L53.0014 17.0241H53.1165L55.2834 7.90909H58.3068L54.5611 21H51.8636L49.3707 12.4411H49.2685L46.782 21H44.0845ZM61.4821 21.1854C60.8556 21.1854 60.2974 21.0767 59.8074 20.8594C59.3173 20.6378 58.9295 20.3118 58.644 19.8814C58.3627 19.4467 58.2221 18.9055 58.2221 18.2578C58.2221 17.7124 58.3223 17.2543 58.5225 16.8835C58.7228 16.5128 58.9956 16.2145 59.3407 15.9886C59.6859 15.7628 60.0779 15.5923 60.5169 15.4773C60.96 15.3622 61.4245 15.2812 61.9103 15.2344C62.4814 15.1747 62.9416 15.1193 63.291 15.0682C63.6404 15.0128 63.894 14.9318 64.0517 14.8253C64.2093 14.7187 64.2882 14.5611 64.2882 14.3523V14.3139C64.2882 13.9091 64.1603 13.5959 63.9047 13.3743C63.6532 13.1527 63.2953 13.0419 62.8308 13.0419C62.3407 13.0419 61.9508 13.1506 61.661 13.3679C61.3713 13.581 61.1795 13.8494 61.0858 14.1733L58.5673 13.9688C58.6951 13.3722 58.9466 12.8565 59.3216 12.4219C59.6966 11.983 60.1802 11.6463 60.7725 11.4119C61.3691 11.1733 62.0595 11.054 62.8436 11.054C63.389 11.054 63.911 11.1179 64.4096 11.2457C64.9125 11.3736 65.3578 11.5717 65.7456 11.8402C66.1376 12.1087 66.4466 12.4538 66.6724 12.8757C66.8983 13.2933 67.0112 13.794 67.0112 14.3778V21H64.4288V19.6385H64.3521C64.1944 19.9453 63.9835 20.2159 63.7193 20.4503C63.4551 20.6804 63.1376 20.8615 62.7669 20.9936C62.3961 21.1214 61.9679 21.1854 61.4821 21.1854ZM62.2619 19.3061C62.6625 19.3061 63.0162 19.2273 63.323 19.0696C63.6298 18.9077 63.8706 18.6903 64.0453 18.4176C64.22 18.1449 64.3074 17.8359 64.3074 17.4908V16.4489C64.2221 16.5043 64.1049 16.5554 63.9558 16.6023C63.8109 16.6449 63.6468 16.6854 63.4636 16.7237C63.2804 16.7578 63.0971 16.7898 62.9139 16.8196C62.7306 16.8452 62.5645 16.8686 62.4153 16.8899C62.0957 16.9368 61.8166 17.0114 61.5779 17.1136C61.3393 17.2159 61.1539 17.3544 61.0218 17.5291C60.8897 17.6996 60.8237 17.9126 60.8237 18.1683C60.8237 18.5391 60.9579 18.8224 61.2264 19.0185C61.4991 19.2102 61.8443 19.3061 62.2619 19.3061ZM77.9256 11.1818L74.4931 21H71.4249L67.9924 11.1818H70.8688L72.9078 18.2067H73.0101L75.0428 11.1818H77.9256ZM83.4771 21.1918C82.4672 21.1918 81.5978 20.9872 80.8691 20.5781C80.1447 20.1648 79.5865 19.581 79.1944 18.8267C78.8024 18.0682 78.6064 17.1712 78.6064 16.1357C78.6064 15.1257 78.8024 14.2393 79.1944 13.4766C79.5865 12.7138 80.1383 12.1193 80.85 11.6932C81.5659 11.267 82.4054 11.054 83.3684 11.054C84.0162 11.054 84.6191 11.1584 85.1774 11.3672C85.7399 11.5717 86.2299 11.8807 86.6476 12.294C87.0694 12.7074 87.3976 13.2273 87.6319 13.8537C87.8663 14.4759 87.9835 15.2045 87.9835 16.0398V16.7876H79.693V15.1001H85.4203C85.4203 14.7081 85.3351 14.3608 85.1646 14.0582C84.9941 13.7557 84.7576 13.5192 84.4551 13.3487C84.1568 13.174 83.8095 13.0866 83.4132 13.0866C82.9998 13.0866 82.6333 13.1825 82.3137 13.3743C81.9984 13.5618 81.7512 13.8153 81.5723 14.1349C81.3933 14.4503 81.3017 14.8018 81.2974 15.1896V16.794C81.2974 17.2798 81.3869 17.6996 81.5659 18.0533C81.7491 18.407 82.0069 18.6797 82.3393 18.8714C82.6717 19.0632 83.0659 19.1591 83.5218 19.1591C83.8244 19.1591 84.1014 19.1165 84.3528 19.0312C84.6042 18.946 84.8194 18.8182 84.9984 18.6477C85.1774 18.4773 85.3137 18.2685 85.4075 18.0213L87.926 18.1875C87.7981 18.7926 87.536 19.321 87.1397 19.7727C86.7477 20.2202 86.2406 20.5696 85.6184 20.821C85.0005 21.0682 84.2868 21.1918 83.4771 21.1918ZM95.0403 11.1818V13.2273H88.9806V11.1818H95.0403ZM90.3677 21V10.4723C90.3677 9.76065 90.5062 9.17045 90.7832 8.7017C91.0645 8.23295 91.448 7.88139 91.9338 7.64702C92.4196 7.41264 92.9714 7.29545 93.5893 7.29545C94.0069 7.29545 94.3883 7.32741 94.7335 7.39134C95.0829 7.45526 95.3429 7.51278 95.5133 7.56392L95.0275 9.60938C94.921 9.57528 94.7889 9.54332 94.6312 9.51349C94.4778 9.48366 94.3201 9.46875 94.1582 9.46875C93.7576 9.46875 93.4785 9.5625 93.3208 9.75C93.1632 9.93324 93.0843 10.1911 93.0843 10.5234V21H90.3677ZM99.152 21.1854C98.5256 21.1854 97.9673 21.0767 97.4773 20.8594C96.9872 20.6378 96.5994 20.3118 96.3139 19.8814C96.0327 19.4467 95.892 18.9055 95.892 18.2578C95.892 17.7124 95.9922 17.2543 96.1925 16.8835C96.3928 16.5128 96.6655 16.2145 97.0107 15.9886C97.3558 15.7628 97.7479 15.5923 98.1868 15.4773C98.63 15.3622 99.0945 15.2812 99.5803 15.2344C100.151 15.1747 100.612 15.1193 100.961 15.0682C101.31 15.0128 101.564 14.9318 101.722 14.8253C101.879 14.7187 101.958 14.5611 101.958 14.3523V14.3139C101.958 13.9091 101.83 13.5959 101.575 13.3743C101.323 13.1527 100.965 13.0419 100.501 13.0419C100.011 13.0419 99.6207 13.1506 99.331 13.3679C99.0412 13.581 98.8494 13.8494 98.7557 14.1733L96.2372 13.9688C96.3651 13.3722 96.6165 12.8565 96.9915 12.4219C97.3665 11.983 97.8501 11.6463 98.4425 11.4119C99.0391 11.1733 99.7294 11.054 100.513 11.054C101.059 11.054 101.581 11.1179 102.08 11.2457C102.582 11.3736 103.028 11.5717 103.415 11.8402C103.808 12.1087 104.116 12.4538 104.342 12.8757C104.568 13.2933 104.681 13.794 104.681 14.3778V21H102.099V19.6385H102.022C101.864 19.9453 101.653 20.2159 101.389 20.4503C101.125 20.6804 100.808 20.8615 100.437 20.9936C100.066 21.1214 99.6378 21.1854 99.152 21.1854ZM99.9318 19.3061C100.332 19.3061 100.686 19.2273 100.993 19.0696C101.3 18.9077 101.54 18.6903 101.715 18.4176C101.89 18.1449 101.977 17.8359 101.977 17.4908V16.4489C101.892 16.5043 101.775 16.5554 101.626 16.6023C101.481 16.6449 101.317 16.6854 101.134 16.7237C100.95 16.7578 100.767 16.7898 100.584 16.8196C100.401 16.8452 100.234 16.8686 100.085 16.8899C99.7656 16.9368 99.4865 17.0114 99.2479 17.1136C99.0092 17.2159 98.8239 17.3544 98.6918 17.5291C98.5597 17.6996 98.4936 17.9126 98.4936 18.1683C98.4936 18.5391 98.6278 18.8224 98.8963 19.0185C99.169 19.2102 99.5142 19.3061 99.9318 19.3061ZM106.794 21V11.1818H109.434V12.8949H109.536C109.715 12.2855 110.015 11.8253 110.437 11.5142C110.859 11.1989 111.345 11.0412 111.895 11.0412C112.031 11.0412 112.178 11.0497 112.336 11.0668C112.493 11.0838 112.632 11.1072 112.751 11.1371V13.5533C112.623 13.5149 112.446 13.4808 112.221 13.451C111.995 13.4212 111.788 13.4062 111.6 13.4062C111.2 13.4062 110.842 13.4936 110.527 13.6683C110.216 13.8388 109.968 14.0774 109.785 14.3842C109.606 14.6911 109.517 15.0447 109.517 15.4453V21H106.794ZM114.159 21V11.1818H116.754V12.9141H116.869C117.074 12.3388 117.415 11.8849 117.892 11.5526C118.369 11.2202 118.94 11.054 119.605 11.054C120.278 11.054 120.851 11.2223 121.324 11.5589C121.797 11.8913 122.113 12.343 122.27 12.9141H122.373C122.573 12.3516 122.935 11.902 123.459 11.5653C123.988 11.2244 124.612 11.054 125.332 11.054C126.248 11.054 126.992 11.3459 127.563 11.9297C128.138 12.5092 128.426 13.3317 128.426 14.397V21H125.709V14.9339C125.709 14.3885 125.564 13.9794 125.275 13.7067C124.985 13.4339 124.623 13.2976 124.188 13.2976C123.694 13.2976 123.308 13.4553 123.031 13.7706C122.754 14.0817 122.616 14.4929 122.616 15.0043V21H119.976V14.8764C119.976 14.3949 119.837 14.0114 119.56 13.7259C119.287 13.4403 118.927 13.2976 118.48 13.2976C118.177 13.2976 117.905 13.3743 117.662 13.5277C117.423 13.6768 117.233 13.8878 117.093 14.1605C116.952 14.429 116.882 14.7443 116.882 15.1065V21H114.159Z" fill="#2563EB"/>
</svg>
